<svg id="Слой_1" data-name="Слой 1" xmlns="http://www.w3.org/2000/svg" viewBox="0 0 977.81 979.6"><defs><style>.cls-1{fill:#fc5555;}</style></defs><path class="cls-1" d="M994.24,13.47q-58.32,77-116.64,154Q751.09,334.08,624.53,500.71c-.58.77-1.06,1.61-1.73,2.64Q808.56,748,994.58,993H760.68l-255-335.77-255,335.86H16.77l372-489.89q-31.62-41.64-63-83Q172.36,218.18,19,16.16c-.66-.85-1.2-1.79-1.8-2.69H251.05c.43.65.81,1.32,1.28,1.94Q356.48,152.61,460.64,289.8c14.92,19.66,29.85,39.31,45,59.19.93-1.09,1.53-1.73,2-2.41Q574,259.21,640.36,171.81q60-79.14,120-158.34Z" transform="translate(-16.77 -13.47)"/></svg>